<mxfile host="app.diagrams.net" agent="Mozilla/5.0 (X11; Linux x86_64) AppleWebKit/537.36 (KHTML, like Gecko) Chrome/131.0.0.0 Safari/537.36" version="26.1.3">
  <diagram name="Page-1" id="cHM5owuN5xLFjk-Sf_AO">
    <mxGraphModel dx="1434" dy="590" grid="0" gridSize="10" guides="1" tooltips="1" connect="1" arrows="1" fold="1" page="0" pageScale="1" pageWidth="850" pageHeight="1100" math="0" shadow="0">
      <root>
        <mxCell id="0" />
        <mxCell id="1" parent="0" />
        <mxCell id="RZ8S-Zv1r5hwjmu9Ozmm-2" value="Memory" style="rounded=1;whiteSpace=wrap;html=1;" vertex="1" parent="1">
          <mxGeometry x="406" y="243" width="120" height="216" as="geometry" />
        </mxCell>
        <mxCell id="RZ8S-Zv1r5hwjmu9Ozmm-3" value="Register File" style="rounded=1;whiteSpace=wrap;html=1;" vertex="1" parent="1">
          <mxGeometry x="-8" y="276" width="100" height="150" as="geometry" />
        </mxCell>
        <mxCell id="RZ8S-Zv1r5hwjmu9Ozmm-4" value="Instruction&lt;div&gt;Register&lt;/div&gt;" style="rounded=1;whiteSpace=wrap;html=1;" vertex="1" parent="1">
          <mxGeometry x="-202" y="313" width="100" height="76" as="geometry" />
        </mxCell>
        <mxCell id="RZ8S-Zv1r5hwjmu9Ozmm-6" value="ULA" style="shape=step;perimeter=stepPerimeter;whiteSpace=wrap;html=1;fixedSize=1;" vertex="1" parent="1">
          <mxGeometry x="186" y="311" width="120" height="80" as="geometry" />
        </mxCell>
      </root>
    </mxGraphModel>
  </diagram>
</mxfile>
